<svg xmlns="http://www.w3.org/2000/svg" viewBox="0 0 64 64">
  <rect width="64" height="64" rx="16" fill="#f5c766"/>
  <path d="M20.4 27.1c4 0 7.2-4.4 7.2-9.8s-3.2-9.8-7.2-9.8-7.2 4.4-7.2 9.8 3.2 9.8 7.2 9.8Zm23.2 0c4 0 7.2-4.4 7.2-9.8s-3.2-9.8-7.2-9.8-7.2 4.4-7.2 9.8 3.2 9.8 7.2 9.8ZM12.8 40.4c3.5 0 6.3-3.5 6.3-7.8s-2.8-7.8-6.3-7.8-6.3 3.5-6.3 7.8 2.8 7.8 6.3 7.8Zm38.4 0c3.5 0 6.3-3.5 6.3-7.8s-2.8-7.8-6.3-7.8-6.3 3.5-6.3 7.8 2.8 7.8 6.3 7.8ZM32 30.2c-8.5 0-17.1 9.4-17.1 17.1 0 5.7 4.8 9.2 10.3 7.5 4.6-1.4 9-1.4 13.6 0 5.5 1.7 10.3-1.8 10.3-7.5 0-7.7-8.6-17.1-17.1-17.1Z" fill="#22313f"/>
</svg>
